<?xml version="1.0" standalone="no"?>
<!DOCTYPE svg PUBLIC "-//W3C//DTD SVG 20010904//EN"
 "http://www.w3.org/TR/2001/REC-SVG-20010904/DTD/svg10.dtd">
<svg version="1.0" xmlns="http://www.w3.org/2000/svg"
 width="500.000000pt" height="500.000000pt" viewBox="0 0 500.000000 500.000000"
 preserveAspectRatio="xMidYMid meet">

<g transform="translate(0.000000,500.000000) scale(0.100000,-0.100000)"
fill="#000000" stroke="none">
<path d="M1374 4103 c4 -16 11 -49 15 -75 5 -33 15 -53 33 -68 25 -19 26 -22
12 -48 -25 -48 -18 -75 34 -129 42 -45 51 -50 84 -48 36 3 36 3 26 -26 -15
-43 -7 -51 31 -31 26 12 38 28 49 60 7 23 17 42 21 42 4 0 3 -37 -1 -82 -4
-46 -5 -105 -1 -133 4 -27 6 -53 5 -57 -1 -4 5 -23 14 -44 8 -20 13 -48 9 -61
-3 -15 3 -38 19 -66 14 -23 28 -58 31 -77 3 -19 12 -61 20 -93 22 -88 23 -87
-39 -87 -60 0 -96 -21 -121 -70 -21 -40 -19 -50 9 -50 14 0 41 -9 60 -21 37
-22 48 -36 20 -25 -14 5 -15 4 -4 -9 7 -8 19 -15 27 -15 7 0 17 -8 20 -17 4
-10 26 -45 49 -78 50 -72 89 -148 98 -192 7 -29 10 -31 32 -22 29 10 37 4 73
-54 20 -32 22 -46 17 -90 -6 -48 -5 -50 9 -33 17 22 49 31 42 12 -3 -7 1 -13
9 -13 7 0 10 5 7 11 -4 6 1 5 10 -3 11 -9 17 -28 17 -58 0 -31 3 -42 12 -37 6
4 18 -2 25 -12 14 -17 14 -15 8 22 -4 24 -2 45 3 48 6 4 8 -3 5 -16 -3 -15 -2
-19 4 -11 7 10 15 9 36 -2 24 -12 27 -12 27 2 0 13 3 13 15 3 23 -19 18 -2
-16 58 -16 30 -25 51 -19 47 12 -8 101 -142 145 -220 43 -75 75 -115 95 -115
10 0 23 -7 30 -15 30 -36 70 -12 148 86 33 42 73 87 90 100 34 26 58 77 87
180 18 63 22 69 72 98 29 18 55 36 58 41 3 5 -22 -7 -57 -27 -35 -21 -67 -43
-71 -50 -5 -8 -12 -11 -18 -8 -5 4 -34 -14 -65 -39 -53 -44 -83 -59 -69 -35 4
6 -12 1 -35 -11 -42 -21 -90 -21 -90 0 0 6 -13 10 -30 10 -17 0 -30 5 -30 12
0 6 -6 4 -13 -7 -21 -27 -65 -13 -82 28 -7 17 -11 35 -9 39 3 4 -1 5 -9 2 -8
-3 -18 -1 -22 5 -10 17 -23 13 -30 -9 -7 -23 -23 -17 -66 23 -14 14 -35 28
-47 31 -12 4 -22 12 -22 17 0 5 -7 9 -15 9 -9 0 -30 7 -48 16 -31 15 -31 15 8
-21 l40 -36 -48 31 c-78 51 -154 135 -192 214 -43 86 -76 229 -57 248 9 9 12
8 12 -6 0 -9 5 -26 10 -37 9 -15 13 -17 24 -7 11 11 11 15 -1 23 -12 9 -11 11
6 12 12 1 21 -2 21 -8 0 -5 13 -9 29 -9 33 0 74 42 64 66 -3 8 1 14 11 14 9 0
15 6 13 13 -1 7 6 11 17 9 10 -2 15 1 12 7 -3 5 2 12 11 15 10 3 -16 3 -57 0
-50 -4 -83 -12 -101 -25 -15 -10 -31 -19 -35 -19 -4 0 0 6 10 13 9 7 18 19 20
27 2 8 6 23 10 32 4 9 4 23 -1 30 -4 7 -8 46 -9 87 0 69 1 74 25 83 14 6 38
16 53 24 31 16 52 18 43 4 -3 -5 -15 -10 -26 -10 -10 0 -19 -5 -19 -11 0 -12
91 -7 124 7 14 5 17 4 12 -4 -4 -7 -3 -12 3 -12 5 0 12 6 14 13 4 8 6 7 6 -3
1 -11 10 -15 29 -14 15 0 46 2 69 2 38 2 42 5 48 33 7 29 8 30 25 14 10 -9 16
-24 13 -32 -4 -11 -1 -14 13 -11 10 2 18 9 17 16 -2 6 4 9 12 6 21 -9 30 -52
17 -86 -10 -26 0 -40 13 -18 3 6 15 10 26 10 11 0 17 5 14 10 -3 6 -2 10 3 10
9 0 5 53 -5 80 -4 8 -7 17 -7 20 -5 25 -75 105 -102 116 -39 16 -58 18 -49 4
3 -5 -1 -10 -9 -10 -9 0 -16 5 -16 10 0 20 -54 31 -151 32 l-97 2 20 40 c12
23 24 47 28 55 7 17 109 73 120 66 5 -3 28 2 52 11 24 8 53 17 65 19 33 5 138
83 207 154 33 33 63 58 66 56 4 -3 7 3 7 13 0 50 6 63 45 94 23 18 39 27 34
20 -4 -7 -1 -19 8 -28 9 -8 17 -11 17 -5 3 21 4 26 12 39 5 7 13 9 19 6 7 -4
8 -2 4 4 -15 24 -61 13 -96 -23 -19 -19 -37 -35 -41 -35 -9 0 1 41 15 60 8 10
2 9 -18 -4 -23 -15 -28 -15 -23 -3 4 12 -4 15 -41 14 -26 0 -53 -4 -59 -10 -9
-6 -13 -6 -13 3 0 17 -50 4 -67 -18 -13 -15 -13 -15 -8 5 l6 22 -507 1 -506 0
6 -27z m820 -577 c18 -7 52 -17 74 -21 23 -4 52 -16 64 -27 21 -18 21 -19 3
-13 -91 31 -205 21 -267 -22 -39 -26 -61 -26 -39 1 8 10 9 15 1 18 -22 7 6 52
41 64 46 17 83 17 123 0z m86 -107 c0 -5 -7 -9 -15 -9 -8 0 -15 7 -15 15 0 9
6 12 15 9 8 -4 15 -10 15 -15z m-275 -369 c-3 -5 -11 -10 -16 -10 -6 0 -7 5
-4 10 3 6 11 10 16 10 6 0 7 -4 4 -10z m620 -700 c-18 -20 -18 -20 16 -13 l34
6 -18 -26 c-9 -14 -17 -32 -17 -40 0 -22 -81 -73 -121 -76 -51 -3 -65 17 -44
63 9 19 29 40 43 46 15 6 47 22 72 36 54 29 58 30 35 4z"/>
<path d="M2746 4113 c-9 -23 15 -35 35 -17 8 7 21 14 27 14 6 0 14 5 17 10 4
6 -10 10 -33 10 -28 0 -42 -5 -46 -17z"/>
<path d="M2827 4112 c-24 -26 -5 -54 29 -42 28 11 50 13 41 4 -3 -3 -1 -12 6
-18 12 -13 22 -9 54 26 9 9 20 15 25 12 9 -6 -8 -25 -36 -41 -16 -9 -15 -11
13 -16 18 -4 31 -13 31 -21 0 -9 9 -20 20 -26 16 -9 20 -8 20 5 0 9 5 13 10
10 6 -4 8 -11 5 -16 -10 -15 28 -10 52 6 16 12 22 12 26 2 3 -6 6 2 6 20 1 23
-3 31 -12 27 -9 -3 -20 10 -32 36 -13 28 -21 37 -26 28 -5 -7 -4 -17 1 -22 4
-4 4 -21 -2 -37 -8 -24 -13 -27 -25 -18 -10 9 -11 14 -2 19 6 4 13 24 15 43
l3 36 -103 0 c-86 1 -106 -2 -119 -17z"/>
<path d="M3093 4115 c4 -9 7 -26 7 -36 0 -25 16 -17 23 11 4 14 -1 24 -15 31
-18 10 -20 9 -15 -6z"/>
<path d="M3240 4124 c0 -3 5 -15 11 -27 17 -31 39 -118 28 -111 -11 6 -11 0 0
-48 11 -46 -9 -53 -35 -13 -19 29 -40 34 -24 6 15 -29 12 -39 -5 -17 -8 11
-15 29 -15 40 -1 22 -38 109 -39 91 -2 -21 29 -121 51 -167 14 -31 29 -48 40
-48 10 0 18 -4 18 -10 0 -5 7 -10 15 -10 8 0 15 -4 15 -10 0 -5 6 -10 14 -10
8 0 17 -7 20 -16 3 -9 2 -12 -5 -8 -6 3 -3 -8 5 -25 12 -22 13 -31 4 -31 -9 0
-9 -3 0 -12 16 -16 15 -31 0 -22 -10 6 -10 5 -1 -8 7 -8 10 -18 6 -22 -4 -3
-7 -21 -8 -39 -2 -23 -7 -32 -19 -31 -21 2 -21 -13 2 -19 15 -4 15 -5 -2 -6
-10 0 -24 -8 -30 -17 -10 -12 -12 -7 -12 31 -1 41 -8 65 -17 54 -2 -2 3 -64
12 -137 15 -123 17 -132 32 -115 17 21 52 149 44 163 -14 22 20 19 55 -5 96
-67 229 -57 286 22 25 34 53 87 32 62 -7 -9 -24 -20 -37 -24 -19 -6 -23 -4
-18 8 3 9 1 17 -5 19 -7 3 -7 18 -1 51 15 66 2 118 -37 158 l-33 34 22 -38
c25 -46 26 -54 5 -36 -15 12 -16 11 -10 -9 4 -12 3 -22 -2 -22 -17 0 -50 46
-55 78 -5 28 -2 32 16 33 12 0 16 3 10 6 -7 2 -13 9 -13 14 0 16 56 -19 74
-46 l17 -25 30 22 c59 43 91 145 69 215 -27 84 -27 83 -71 83 l-40 0 19 -25
c20 -25 23 -69 7 -108 -6 -14 -4 -16 11 -10 12 4 15 3 10 -5 -4 -7 -16 -12
-27 -12 -11 0 -17 5 -14 10 3 6 1 10 -5 10 -6 0 -2 10 9 21 19 21 19 23 3 44
-27 37 -115 75 -173 75 -47 0 -69 -8 -153 -57 -17 -11 -23 -10 -33 4 -7 9 -13
25 -13 35 0 11 -7 18 -20 18 -11 0 -20 -3 -20 -6z m126 -170 c-3 -8 -1 -14 5
-14 6 0 7 -4 4 -10 -3 -6 1 -7 9 -4 18 7 23 -21 5 -31 -6 -4 -8 -13 -6 -20 4
-8 -4 -11 -26 -9 -48 6 -56 22 -26 47 16 13 26 31 24 44 -1 12 2 20 7 17 5 -4
7 -12 4 -20z m289 -23 c6 -10 -63 -37 -72 -28 -9 10 9 28 23 23 8 -3 14 -1 14
4 0 13 27 13 35 1z m-185 -40 c0 -6 -4 -13 -10 -16 -5 -3 -10 1 -10 9 0 9 5
16 10 16 6 0 10 -4 10 -9z m-10 -36 c0 -2 -10 -10 -22 -16 -21 -11 -22 -11 -9
4 13 16 31 23 31 12z m12 -86 c-5 -11 -12 -21 -17 -21 -6 0 -15 -4 -22 -9 -7
-7 -13 -6 -17 0 -4 5 -1 13 6 18 12 7 50 30 55 32 1 1 -1 -8 -5 -20z m105 -51
c-3 -7 -5 -2 -5 12 0 14 2 19 5 13 2 -7 2 -19 0 -25z"/>
<path d="M2696 4054 c-5 -13 -9 -14 -21 -4 -16 13 -18 9 -16 -26 1 -12 -16
-52 -38 -88 -43 -70 -48 -82 -30 -70 21 13 -10 -34 -33 -50 -43 -30 6 -17 56
15 56 35 69 47 83 74 16 30 25 87 13 80 -7 -4 -9 10 -6 39 4 48 2 56 -8 30z"/>
<path d="M2615 4050 c-3 -5 -1 -10 4 -10 6 0 11 5 11 10 0 6 -2 10 -4 10 -3 0
-8 -4 -11 -10z"/>
<path d="M2605 4010 c-3 -5 -1 -10 4 -10 6 0 11 5 11 10 0 6 -2 10 -4 10 -3 0
-8 -4 -11 -10z"/>
<path d="M3160 3891 c0 -11 4 -22 9 -25 4 -3 6 6 3 19 -5 30 -12 33 -12 6z"/>
<path d="M3181 3837 c-1 -20 47 -73 57 -63 3 4 -4 14 -17 22 -12 9 -26 26 -31
38 -7 17 -9 18 -9 3z"/>
<path d="M3710 3701 c11 -41 20 -51 20 -25 0 11 -7 29 -15 40 -13 17 -14 16
-5 -15z"/>
<path d="M2430 3615 c0 -6 14 -26 30 -45 16 -19 29 -30 29 -25 0 6 -13 26 -29
45 -17 19 -30 30 -30 25z"/>
<path d="M2835 3524 c-23 -10 -25 -13 -10 -13 21 -1 53 15 45 22 -3 2 -18 -2
-35 -9z"/>
<path d="M2811 3469 c-25 -5 -49 -14 -55 -20 -8 -9 -6 -10 9 -5 16 6 15 2 -8
-21 -32 -35 -36 -53 -4 -23 l22 21 3 -23 c6 -39 21 -48 74 -47 58 3 82 21 74
55 -8 31 7 31 31 1 10 -13 32 -27 48 -31 l30 -7 -35 37 c-33 35 -33 37 -7 20
36 -22 44 -16 14 12 -13 12 -47 26 -76 32 -60 11 -59 11 -120 -1z m79 -54 c0
-8 -7 -15 -15 -15 -8 0 -15 7 -15 15 0 8 7 15 15 15 8 0 15 -7 15 -15z"/>
<path d="M2382 3173 c-50 -68 -55 -87 -30 -118 11 -14 23 -24 26 -21 3 3 11 1
19 -5 18 -15 163 -23 163 -9 0 5 -8 10 -19 10 -10 0 -30 9 -45 21 -14 11 -48
24 -74 27 -43 7 -47 9 -50 38 -2 19 3 36 12 43 13 11 17 9 25 -11 11 -30 66
-78 89 -78 11 0 6 10 -18 35 -18 19 -35 46 -36 61 -4 35 -11 54 -21 53 -4 0
-23 -21 -41 -46z"/>
<path d="M2485 3200 c-8 -14 4 -52 15 -45 4 3 7 13 6 23 -2 9 4 20 13 24 12 5
11 7 -6 7 -12 1 -25 -4 -28 -9z"/>
<path d="M2630 3060 c-22 -7 -20 -8 12 -7 21 0 35 4 32 9 -6 9 -9 9 -44 -2z"/>
<path d="M2824 2953 c18 -36 21 -74 6 -89 -5 -5 -6 -22 -1 -39 7 -28 8 -29 15
-8 4 12 13 23 21 25 11 2 11 12 -4 56 -10 30 -26 61 -36 70 -16 16 -16 15 -1
-15z"/>
<path d="M1997 2916 c-15 -7 -25 -15 -22 -18 10 -9 43 3 49 18 3 8 4 14 3 13
-1 0 -14 -6 -30 -13z"/>
<path d="M2185 2903 c-12 -32 -5 -61 16 -66 11 -3 23 -15 26 -26 3 -11 9 -18
14 -15 5 3 6 -2 3 -10 -3 -9 -2 -16 2 -16 5 -1 23 -12 39 -26 17 -15 22 -24
13 -20 -33 10 -18 -9 30 -40 68 -44 107 -57 139 -49 26 7 26 8 8 15 -11 4 -39
13 -62 20 -24 7 -50 24 -62 41 l-21 29 27 -11 c40 -15 63 -19 63 -10 0 4 -18
13 -40 20 -36 11 -40 15 -34 34 6 21 6 22 -14 4 -21 -19 -37 -11 -23 12 11 17
71 23 77 8 2 -7 20 -12 38 -13 24 0 33 3 29 13 -3 7 -16 13 -29 13 -25 0 -41
21 -29 40 4 7 13 6 28 -2 12 -6 39 -10 60 -9 34 2 37 1 38 -26 1 -21 3 -23 6
-8 10 39 22 44 104 42 85 -2 85 -1 79 -66 -2 -23 -1 -23 27 -6 57 33 78 54 68
63 -20 19 -250 46 -392 47 -79 0 -143 3 -143 6 0 4 -7 10 -16 13 -8 3 -12 2
-9 -4 3 -6 -1 -7 -9 -4 -9 3 -16 9 -16 13 0 14 -29 8 -35 -6z m185 -69 c-15
-17 -30 -9 -30 17 0 17 3 18 21 9 16 -9 18 -14 9 -26z"/>
<path d="M2050 2880 c-9 -6 -10 -10 -3 -10 6 0 15 5 18 10 8 12 4 12 -15 0z"/>
<path d="M2077 2803 c-20 -16 -36 -33 -37 -39 0 -19 27 -24 40 -9 7 8 16 13
20 10 5 -3 12 0 16 6 4 8 3 9 -4 5 -7 -4 -12 -2 -12 5 0 8 -4 8 -15 -1 -26
-21 -16 0 11 25 36 33 26 32 -19 -2z"/>
<path d="M2660 2820 c0 -5 5 -10 11 -10 5 0 7 5 4 10 -3 6 -8 10 -11 10 -2 0
-4 -4 -4 -10z"/>
<path d="M2961 2814 c0 -11 3 -14 6 -6 3 7 2 16 -1 19 -3 4 -6 -2 -5 -13z"/>
<path d="M2595 2730 c-13 -5 -14 -9 -5 -9 8 0 24 4 35 9 13 5 14 9 5 9 -8 0
-24 -4 -35 -9z"/>
<path d="M2487 2724 c-3 -3 -3 -12 -1 -19 6 -14 40 -9 51 8 4 6 -2 8 -15 5
-12 -4 -20 -2 -16 3 6 10 -9 12 -19 3z"/>
<path d="M3042 2698 c-16 -16 -15 -55 1 -55 9 0 14 13 15 34 2 37 1 38 -16 21z"/>
<path d="M2500 2650 c0 -12 27 -12 55 0 16 7 13 9 -17 9 -21 1 -38 -3 -38 -9z"/>
<path d="M2953 2579 c-7 -18 -11 -34 -9 -37 7 -7 27 39 24 55 -2 9 -8 2 -15
-18z"/>
<path d="M1003 2542 c-90 -47 -137 -120 -178 -277 -27 -106 -33 -229 -12 -255
12 -16 76 -18 363 -12 l111 2 0 36 c0 20 4 39 9 42 5 4 9 13 8 20 -1 6 -2 16
-3 21 0 5 -10 13 -21 16 -26 8 -25 21 5 51 14 14 25 33 25 43 0 10 7 24 15 31
10 9 12 17 6 23 -12 12 -99 11 -115 -1 -6 -5 -26 -14 -43 -20 -27 -9 -34 -8
-42 5 -5 9 -5 29 -1 45 5 16 5 28 0 28 -5 0 -12 17 -16 38 -4 20 -11 42 -16
49 -5 6 -6 27 -3 46 5 27 3 37 -10 45 -12 6 -14 11 -6 16 8 5 7 11 -3 22 -18
17 -11 18 -73 -14z"/>
<path d="M3133 2500 c-13 -5 -32 -24 -43 -42 -11 -18 -20 -27 -20 -20 0 6 -4
12 -10 12 -5 0 -10 -11 -10 -24 0 -13 -9 -35 -20 -49 -11 -14 -20 -30 -20 -36
0 -6 -16 -42 -35 -80 -19 -37 -35 -71 -35 -75 0 -14 -60 -101 -67 -97 -13 7
-44 -87 -32 -95 6 -3 46 -3 90 1 76 7 79 8 81 34 2 51 4 56 15 54 11 -2 29 52
25 71 -2 4 4 18 11 30 8 12 23 48 33 80 10 33 30 70 46 85 28 26 37 51 18 51
-5 0 -14 9 -20 20 -9 16 -5 25 20 51 16 18 30 34 30 35 0 7 -35 3 -57 -6z"/>
<path d="M2264 2238 c1 -10 13 -29 26 -43 22 -23 22 -25 5 -20 -19 6 -19 5 -2
-7 41 -29 72 -60 54 -54 -10 3 -24 6 -31 6 -7 0 -35 16 -61 36 -71 55 -50 21
25 -39 36 -29 72 -66 80 -84 13 -27 21 -32 58 -35 62 -5 83 5 44 21 -28 12
-82 75 -82 96 0 5 17 -7 38 -26 l37 -34 -31 35 c-17 19 -43 52 -59 72 -15 21
-32 35 -37 32 -5 -4 -22 9 -38 27 -19 22 -28 28 -26 17z"/>
<path d="M1802 2213 c-6 -12 -12 -28 -12 -36 0 -8 -7 -28 -15 -45 -32 -63 20
-132 99 -132 l43 0 7 75 c4 42 9 83 13 93 3 9 -4 4 -16 -13 -11 -16 -21 -40
-21 -52 0 -13 -6 -23 -15 -23 -7 0 -18 -6 -22 -12 -4 -7 -16 -19 -26 -27 -16
-12 -17 -12 -11 5 4 10 11 24 16 31 14 17 -1 36 -23 30 -30 -8 -30 6 2 42 36
42 37 48 2 25 -23 -14 -26 -15 -15 -1 8 9 12 26 10 39 l-3 23 -13 -22z"/>
<path d="M2207 2060 c6 -47 15 -65 30 -59 6 2 0 27 -13 54 l-22 50 5 -45z"/>
<path d="M3717 2023 c-19 -18 1 -23 91 -22 l97 1 -65 14 c-73 15 -113 17 -123
7z"/>
<path d="M830 1451 c0 -183 -1 -190 -21 -196 -11 -4 -36 -4 -55 0 -43 8 -43 0
-1 -25 20 -12 50 -20 79 -20 75 0 78 9 78 237 l0 193 -40 0 -40 0 0 -189z"/>
<path d="M1590 1630 c0 -6 60 -10 160 -10 l160 0 0 -75 0 -75 40 0 40 0 0 75
c0 60 3 75 15 75 8 0 15 5 15 10 0 6 -78 10 -215 10 -137 0 -215 -4 -215 -10z"/>
<path d="M2116 1615 c-5 -18 -13 -25 -31 -25 l-25 0 0 -185 0 -185 83 0 c45 0
88 4 94 8 9 6 13 54 14 172 0 146 -1 166 -17 177 -10 7 -26 13 -36 13 -15 0
-16 4 -8 25 9 24 8 25 -29 25 -33 0 -40 -4 -45 -25z m64 -121 l0 -75 -27 3
c-27 3 -28 6 -31 61 -3 63 8 87 39 87 17 0 19 -8 19 -76z m0 -168 c0 -68 -3
-85 -16 -90 -32 -12 -44 13 -44 89 0 39 3 75 7 78 3 4 17 7 30 7 22 0 23 -3
23 -84z"/>
<path d="M2284 1575 l-20 -65 26 0 c32 0 57 18 62 45 2 12 11 20 23 20 19 0
20 -8 23 -150 3 -172 1 -176 -73 -165 -39 6 -43 5 -32 -8 18 -22 71 -42 110
-42 62 0 67 16 67 201 0 115 -4 169 -12 177 -7 7 -30 12 -51 12 -34 0 -39 3
-34 20 4 17 0 20 -32 20 -36 0 -36 -1 -57 -65z"/>
<path d="M2615 1628 c-2 -7 -11 -56 -20 -108 -15 -88 -54 -252 -70 -292 -11
-29 32 -22 64 10 21 21 30 44 41 105 7 43 16 79 20 82 3 2 12 -23 19 -56 10
-52 16 -62 41 -73 l30 -12 -20 -37 c-22 -41 -16 -45 38 -26 36 12 35 12 52
107 7 39 16 72 20 72 4 0 14 -36 24 -79 18 -84 24 -94 70 -105 25 -6 28 -5 21
11 -5 10 -22 78 -39 151 -21 90 -35 132 -44 132 -11 0 -12 13 -7 65 l7 65 -30
0 c-29 0 -30 -2 -41 -67 -29 -170 -44 -243 -48 -239 -2 2 -11 33 -19 67 -8 35
-16 74 -19 87 -4 14 -13 22 -26 22 -17 0 -20 5 -16 23 4 12 9 41 13 65 7 42 7
42 -25 42 -17 0 -33 -6 -36 -12z"/>
<path d="M3160 1620 c0 -15 -7 -20 -28 -20 -15 0 -33 -5 -40 -12 -9 -9 -12 -9
-12 0 0 7 -16 12 -40 12 l-40 0 0 -45 0 -45 38 0 37 -1 -23 -19 -23 -19 38 -3
38 -3 -56 -57 c-41 -43 -51 -58 -37 -58 16 0 18 -8 18 -64 l0 -65 164 0 c194
-1 201 2 194 81 -5 44 -3 48 16 48 17 0 10 11 -36 55 -50 49 -61 55 -100 55
-23 0 -66 3 -93 6 l-51 6 34 37 33 36 -43 3 c-32 3 -46 -1 -56 -15 -12 -16
-13 -15 -10 12 l3 30 122 3 c116 2 122 2 128 -18 8 -26 -1 -38 -17 -22 -13 13
-88 17 -88 4 0 -5 13 -21 29 -36 21 -20 43 -30 78 -34 l48 -5 -19 22 c-19 21
-19 21 11 21 27 0 31 4 35 31 7 47 -12 59 -93 59 -62 0 -69 2 -69 20 0 17 -7
20 -45 20 -38 0 -45 -3 -45 -20z m120 -215 l34 -35 -90 0 c-57 0 -94 -4 -102
-12 -9 -9 -12 -9 -12 2 0 8 14 29 32 47 45 47 92 46 138 -2z m11 -65 c14 -8
19 -21 19 -51 0 -33 -4 -41 -26 -49 -28 -11 -117 -13 -151 -4 -20 5 -23 13
-23 54 0 29 5 50 13 53 23 10 148 7 168 -3z"/>
<path d="M3520 1615 c0 -18 -5 -25 -20 -25 -11 0 -20 -4 -20 -10 0 -5 9 -10
20 -10 15 0 20 -7 20 -29 0 -27 -4 -30 -37 -34 -31 -3 -28 -4 15 -5 61 -2 67
-20 14 -37 -19 -5 -31 -14 -28 -21 3 -7 0 -15 -7 -18 -15 -7 66 0 111 9 32 7
41 -2 21 -22 -6 -6 -30 -8 -56 -5 l-46 5 21 -31 c12 -16 22 -34 22 -40 0 -5
-19 -14 -42 -19 l-43 -11 46 -1 c38 -1 48 -5 52 -22 10 -37 -3 -51 -39 -47
-38 4 -44 -6 -15 -22 31 -16 86 -12 104 8 10 10 17 35 17 54 0 29 4 37 23 41
12 4 31 13 42 21 19 14 17 15 -15 6 -60 -17 -64 -12 -26 30 20 22 36 44 36 48
0 18 -26 32 -59 32 -33 0 -34 0 -16 20 10 11 28 20 39 20 16 0 18 2 7 9 -12 8
-8 17 22 50 20 23 37 43 37 46 0 3 -15 5 -32 5 -26 -1 -39 -9 -63 -40 -34 -44
-45 -49 -45 -20 0 13 7 20 20 20 11 0 20 5 20 10 0 6 -9 10 -20 10 -15 0 -20
7 -20 25 0 21 -5 25 -30 25 -25 0 -30 -4 -30 -25z"/>
<path d="M3719 1560 c-24 -76 -24 -80 -6 -80 32 0 55 19 62 50 6 29 9 30 61
30 30 0 54 5 54 10 0 6 -22 10 -50 10 l-49 0 6 30 c5 28 3 30 -23 30 -27 -1
-30 -5 -55 -80z"/>
<path d="M4110 1620 c0 -19 -7 -20 -90 -20 -53 0 -90 -4 -90 -10 0 -5 21 -10
47 -10 l46 0 -39 -34 c-33 -29 -37 -37 -28 -53 16 -26 170 -31 232 -7 40 15
44 15 62 -1 11 -10 41 -20 67 -23 l48 -5 -45 51 c-41 45 -49 50 -89 51 l-43 1
15 -24 c9 -13 13 -26 10 -30 -11 -10 -163 -7 -163 4 0 5 19 23 42 40 40 29 44
30 155 30 69 0 113 4 113 10 0 6 -35 10 -85 10 -78 0 -85 2 -85 20 0 17 -7 20
-40 20 -33 0 -40 -3 -40 -20z"/>
<path d="M1150 1620 c0 -5 55 -11 133 -12 l132 -3 -2 -72 -2 -73 34 0 c32 0
35 3 40 38 3 20 8 49 10 65 3 18 -2 34 -15 47 -18 18 -34 20 -175 20 -94 0
-155 -4 -155 -10z"/>
<path d="M1620 1535 l0 -54 112 0 c67 -1 117 4 125 10 7 6 13 26 13 44 0 18
-6 38 -13 44 -8 6 -58 11 -125 10 l-112 0 0 -54z m165 0 c0 -28 -2 -30 -40
-30 -30 0 -41 4 -43 18 -7 36 6 48 45 45 35 -3 38 -6 38 -33z"/>
<path d="M1195 1513 c-9 -90 -5 -93 146 -93 133 0 129 3 129 -90 0 -78 -9 -84
-116 -78 -74 4 -84 3 -68 -9 52 -38 186 -45 228 -12 24 19 26 26 26 99 0 60
-4 81 -16 91 -11 9 -56 16 -133 19 l-116 5 1 68 1 67 -38 0 -37 0 -7 -67z"/>
<path d="M696 1524 c-3 -9 -6 -30 -6 -47 0 -34 -22 -140 -35 -169 -6 -15 -2
-18 22 -18 50 0 65 20 79 106 7 43 13 94 13 112 1 30 -1 32 -33 32 -22 0 -36
-6 -40 -16z"/>
<path d="M960 1523 c0 -10 7 -58 15 -108 17 -99 35 -125 86 -125 l28 0 -14 34
c-8 19 -20 76 -27 125 l-12 91 -38 0 c-30 0 -38 -4 -38 -17z"/>
<path d="M3801 1484 c-9 -26 -16 -33 -24 -25 -6 6 -26 11 -44 11 l-33 0 24
-54 24 -53 -33 -62 c-18 -34 -39 -68 -45 -76 -10 -13 -7 -15 19 -15 20 0 42
10 62 28 l31 28 28 -28 c16 -16 39 -28 54 -28 l25 0 -37 68 -36 69 36 86 36
87 -37 0 c-33 0 -38 -4 -50 -36z"/>
<path d="M2270 1477 c0 -19 31 -109 43 -124 5 -7 25 -13 43 -13 34 0 34 0 18
25 -9 13 -21 46 -28 72 -11 44 -15 48 -44 51 -22 2 -32 -1 -32 -11z"/>
<path d="M1748 1443 l162 -3 0 -85 c0 -102 -7 -109 -112 -103 -59 3 -67 2 -52
-9 51 -38 191 -46 224 -13 17 17 20 33 20 114 0 82 2 95 18 99 9 3 -82 4 -203
4 -185 -1 -195 -2 -57 -4z"/>
<path d="M3980 1325 l0 -115 35 0 c34 0 35 1 35 40 l0 40 96 0 c93 0 95 -1 92
-22 -3 -20 -11 -24 -53 -28 l-50 -5 34 -12 c36 -14 99 -17 125 -7 13 5 16 24
16 103 0 62 -4 101 -12 109 -8 8 -49 12 -118 12 -69 0 -110 -4 -118 -12 -9 -9
-12 -9 -12 0 0 7 -14 12 -35 12 l-35 0 0 -115z m258 68 c3 -22 1 -23 -92 -23
-72 0 -96 3 -96 13 0 30 25 38 105 35 74 -3 80 -5 83 -25z m0 -65 c-3 -22 -7
-23 -93 -23 -86 0 -90 1 -93 23 -3 21 -1 22 93 22 94 0 96 -1 93 -22z"/>
<path d="M1620 1348 l0 -59 123 3 122 3 3 48 c3 42 1 48 -22 57 -13 5 -70 9
-125 8 l-101 0 0 -60z m168 0 c3 -33 0 -38 -22 -44 -39 -9 -60 -1 -70 28 -13
38 7 60 53 56 34 -3 36 -5 39 -40z"/>
<path d="M1120 1340 c0 -6 60 -10 160 -10 100 0 160 4 160 10 0 6 -60 10 -160
10 -100 0 -160 -4 -160 -10z"/>
</g>
</svg>
